<svg width="24" height="23" viewBox="0 0 24 23" fill="none" xmlns="http://www.w3.org/2000/svg">
<path d="M18.1776 17.2706C16.6362 17.2691 15.3855 18.5174 15.3839 20.0588C15.3824 21.6002 16.6308 22.8509 18.1722 22.8525C19.7136 22.8539 20.9643 21.6056 20.9659 20.0642V20.0615C20.9644 18.5218 19.7173 17.2736 18.1776 17.2706Z" fill="white"/>
<path d="M23.1278 3.90597C23.061 3.89303 22.9932 3.88646 22.9251 3.88636H5.93181L5.66267 2.08582C5.49499 0.890047 4.47216 0.000367962 3.26466 0H1.07655C0.481978 0 0 0.481977 0 1.07655C0 1.67112 0.481978 2.1531 1.07655 2.1531H3.26734C3.40423 2.1521 3.52008 2.25403 3.53648 2.38996L5.19436 13.7529C5.42166 15.1968 6.66363 16.262 8.12528 16.2667H19.3241C20.7313 16.2685 21.9454 15.2795 22.2281 13.901L23.9802 5.16744C24.0931 4.5837 23.7115 4.01893 23.1278 3.90597Z" fill="white"/>
<path d="M11.3405 19.942C11.2749 18.4458 10.0401 17.268 8.54246 17.2732C7.00233 17.3355 5.80425 18.6345 5.86648 20.1746C5.9262 21.6524 7.12833 22.827 8.60707 22.8525H8.67435C10.2143 22.785 11.4079 21.4819 11.3405 19.942Z" fill="white"/>
</svg>
